<svg xmlns="http://www.w3.org/2000/svg" x="0px" y="0px" width="250px" height="250px">
<path fill="#FFFFFF" d="M125,210.84c-47.21,0-85.62-38.41-85.62-85.62c0-47.21,38.41-85.62,85.62-85.62
	c47.21,0,85.62,38.41,85.62,85.62C210.62,172.43,172.21,210.84,125,210.84z"/>
<path fill="#F4C082" d="M125,0.5C56.35,0.5,0.5,56.35,0.5,125c0,68.65,55.85,124.5,124.5,124.5c68.65,0,124.5-55.85,124.5-124.5
	C249.5,56.35,193.65,0.5,125,0.5z M125,208.81c-46.09,0-83.59-37.5-83.59-83.59S78.91,41.63,125,41.63
	c46.09,0,83.59,37.5,83.59,83.59S171.09,208.81,125,208.81z M118.25,169.81l-0.1,1.16H66.94v-69.7l41.97-39.69
	c2.02-1.88,6.95-4.35,11.24-0.36c4.2,3.91,2.45,9.74,0.93,12.28l-0.2,0.26L95.37,98.61c0.92,1.33,1.36,2.46,1.4,2.58
	c0.14,0.44,2.94,9.47,3.44,21.8c0.44,4.5,1.88,6.17,6.23,10.17c0.3,0.28,0.63,0.56,0.97,0.87
	C112.27,138.33,120.41,145.52,118.25,169.81z M149.37,106.07c0.37-5.28-1.23-9.63-4.51-12.25c-8.54-6.83-17.2-1.78-19.6-0.11
	c-2.4-1.66-11.06-6.71-19.6,0.11c-3.28,2.62-4.88,6.97-4.51,12.25c0.62,8.8,7.17,22.52,23.6,32.22l0.52,0.31l0.52-0.31
	C142.2,128.59,148.75,114.87,149.37,106.07z M141.59,61.57c-2.01-1.87-6.95-4.35-11.23-0.35c-4.2,3.91-2.44,9.74-0.93,12.28
	l25.72,25.12c-0.93,1.34-1.37,2.5-1.43,2.64c-0.12,0.38-2.92,9.41-3.41,21.66c-0.44,4.57-1.89,6.25-6.24,10.24
	c-0.3,0.28-0.63,0.56-0.97,0.87c-4.86,4.3-13,11.5-10.84,35.78l0.1,1.16h51.2v-69.7L141.59,61.57z"/>
<path fill="#004B8D" d="M125,3.55C58.03,3.55,3.55,58.03,3.55,125c0,66.97,54.48,121.45,121.46,121.45
	c66.97,0,121.45-54.48,121.45-121.45C246.45,58.03,191.97,3.55,125,3.55z M125,210.84c-47.21,0-85.62-38.41-85.62-85.62
	c0-47.21,38.41-85.62,85.62-85.62c47.21,0,85.62,38.41,85.62,85.62C210.62,172.43,172.21,210.84,125,210.84z M191.84,149.13
	c0.91,0,1.78,0.23,2.62,0.68c0.84,0.46,1.49,1.11,1.97,1.96c0.48,0.85,0.72,1.74,0.72,2.67c0,0.92-0.23,1.81-0.7,2.65
	c-0.47,0.84-1.12,1.49-1.96,1.96c-0.84,0.47-1.72,0.7-2.65,0.7c-0.92,0-1.81-0.24-2.65-0.7c-0.84-0.47-1.49-1.12-1.96-1.96
	c-0.47-0.84-0.7-1.72-0.7-2.65c0-0.93,0.24-1.82,0.72-2.67c0.48-0.85,1.14-1.51,1.97-1.96
	C190.05,149.36,190.92,149.13,191.84,149.13 M191.84,150.19c-0.73,0-1.43,0.18-2.1,0.55c-0.67,0.36-1.2,0.89-1.58,1.57
	c-0.39,0.69-0.58,1.4-0.58,2.15c0,0.74,0.19,1.45,0.57,2.13c0.38,0.67,0.9,1.2,1.58,1.58c0.68,0.38,1.38,0.57,2.12,0.57
	c0.75,0,1.45-0.19,2.13-0.57c0.67-0.38,1.2-0.91,1.58-1.58c0.38-0.68,0.57-1.39,0.57-2.13c0-0.75-0.19-1.46-0.58-2.15
	c-0.39-0.68-0.92-1.21-1.59-1.57C193.28,150.37,192.57,150.19,191.84,150.19 M189.44,157.3v-5.63h1.15c1.07,0,1.68,0.01,1.81,0.01
	c0.38,0.03,0.67,0.11,0.89,0.23c0.21,0.12,0.39,0.3,0.53,0.54c0.14,0.24,0.21,0.51,0.21,0.81c0,0.41-0.13,0.75-0.4,1.04
	c-0.27,0.29-0.64,0.47-1.12,0.54c0.17,0.06,0.3,0.13,0.4,0.21c0.09,0.08,0.22,0.22,0.38,0.43c0.04,0.06,0.18,0.28,0.42,0.69
	l0.66,1.13h-1.42l-0.47-0.92c-0.32-0.61-0.58-1-0.79-1.16c-0.21-0.16-0.47-0.24-0.79-0.24h-0.3v2.31
	C190.58,157.3,189.44,157.3,189.44,157.3z M190.58,154.1h0.47c0.66,0,1.08-0.03,1.24-0.08c0.16-0.05,0.29-0.14,0.38-0.27
	c0.09-0.13,0.14-0.27,0.14-0.43c0-0.16-0.04-0.3-0.14-0.42c-0.09-0.12-0.22-0.21-0.39-0.26c-0.17-0.05-0.58-0.08-1.23-0.08h-0.47
	L190.58,154.1L190.58,154.1z M144.78,135.93c0.36-0.31,0.69-0.61,1-0.9c4.37-4.02,6.5-6.2,7.05-11.94
	c0.48-11.96,3.27-20.98,3.28-21.01c0.09-0.23,2.15-5.64,7.14-5.33c1.23,0.07,2.16,0.49,2.86,1.28c1.58,1.8,1.39,4.89,1.39,5.01
	v29.99h2.54l0-29.89c0.01-0.17,0.28-4.17-2.01-6.77c-1.15-1.31-2.71-2.04-4.63-2.15c-2.92-0.17-5.08,1.01-6.61,2.46l-25.26-24.61
	c-0.49-0.89-2.9-5.77,0.56-8.99c3.56-3.31,7.36-0.03,7.77,0.35l41.17,38.94v66.07h-46.34C133,146.35,140.35,139.84,144.78,135.93z
	 M118.42,63.08c-3.65-3.4-7.61,0.2-7.78,0.35l-41.16,38.93v66.07h46.34c1.69-22.08-5.67-28.59-10.09-32.5
	c-0.36-0.31-0.69-0.61-1-0.9c-4.37-4.02-6.49-6.2-7.04-11.87c-0.48-12.06-3.28-21.05-3.31-21.14c-0.06-0.16-2.18-5.55-7.12-5.26
	c-1.23,0.07-2.17,0.49-2.86,1.28c-1.58,1.8-1.39,4.89-1.39,4.92l0,30.08h-2.54v-29.99c-0.01-0.08-0.28-4.07,2-6.68
	c1.15-1.31,2.71-2.04,4.63-2.15c2.91-0.18,5.08,1.02,6.61,2.46l25.26-24.61C119.46,71.18,121.88,66.3,118.42,63.08z"/>
<path fill="#EE3224" d="M143.59,95.4c-8.69-6.94-17.32,0.04-17.69,0.34l-0.65,0.54l-0.65-0.54c-0.24-0.2-4.2-3.41-9.4-3.41
	c-2.56,0-5.42,0.78-8.28,3.06c-2.74,2.19-4.08,5.93-3.75,10.52c0.62,8.86,7.7,21.61,22.09,30.31c14.39-8.7,21.46-21.44,22.09-30.31
	C147.66,101.33,146.33,97.59,143.59,95.4z"/>
<path fill="#F9DCBA" d="M36.59,96.38l-0.76-0.34c0.35-0.87,0.51-1.53,0.46-1.99c-0.07-0.69-0.53-1.23-1.39-1.61l-14.5-6.45
	c-0.87-0.39-1.58-0.37-2.12,0.04c-0.33,0.25-0.73,0.81-1.18,1.68l-0.76-0.34l7.56-17l6.05,2.69l-0.33,0.73
	c-2.03-0.46-3.61-0.41-4.75,0.13c-1.14,0.55-2.23,2-3.28,4.36c-0.39,0.88-0.54,1.48-0.45,1.81c0.09,0.33,0.41,0.61,0.96,0.85
	l6.94,3.09c0.75-1.61,0.89-2.85,0.44-3.74c-0.46-0.89-1.4-1.83-2.84-2.81l0.34-0.76l10.13,4.51L36.77,82
	c-1.71-0.51-3.07-0.63-4.09-0.34c-1.02,0.29-1.89,1.24-2.6,2.85l6.98,3.1c0.92,0.41,1.64,0.4,2.12-0.03
	c0.49-0.43,0.97-1.21,1.45-2.33l0.76,0.34L36.59,96.38z M43.18,79.98l-0.69-0.46c0.5-0.79,0.77-1.4,0.83-1.85
	c0.08-0.74-0.28-1.38-1.09-1.92l-13.24-8.77c-0.81-0.54-1.53-0.63-2.15-0.29c-0.38,0.21-0.86,0.71-1.44,1.5l-0.7-0.46l6.34-9.56
	l0.69,0.46c-0.53,0.88-0.82,1.53-0.88,1.96c-0.08,0.71,0.29,1.35,1.11,1.89l13.23,8.77c0.77,0.5,1.42,0.63,1.96,0.37
	c0.54-0.25,1.09-0.81,1.66-1.67l0.69,0.46L43.18,79.98z M51.75,68.98l-5.99-5.49l0.64-0.7c2.16,1.26,4.06,1.83,5.68,1.7
	c1.62-0.13,2.96-0.76,3.99-1.89c1.01-1.1,1.45-2.15,1.31-3.13c-0.14-0.98-0.52-1.75-1.14-2.32c-0.72-0.66-1.54-0.96-2.44-0.89
	c-0.6,0.05-1.58,0.34-2.96,0.88l-2.22,0.86c-2.2,0.85-3.97,1.25-5.31,1.19c-1.34-0.06-2.56-0.59-3.68-1.61
	c-1.18-1.08-1.89-2.51-2.14-4.3c-0.25-1.79,0.43-3.55,2.03-5.3c0.82-0.89,1.74-1.63,2.77-2.21c1.03-0.59,1.6-0.94,1.71-1.05
	c0.25-0.27,0.34-0.52,0.28-0.77c-0.06-0.24-0.19-0.51-0.38-0.8l0.66-0.72l5.26,4.83l-0.62,0.67c-1.52-0.8-3.09-1.19-4.72-1.18
	c-1.63,0.01-2.97,0.59-4.04,1.76c-0.75,0.82-1.12,1.67-1.11,2.56c0.01,0.88,0.33,1.62,0.97,2.2c0.76,0.7,1.54,1,2.33,0.9
	c0.79-0.09,2.25-0.55,4.39-1.38l2.57-1c1.14-0.44,2.18-0.68,3.11-0.71c1.74-0.06,3.26,0.51,4.57,1.71c1.22,1.12,1.93,2.66,2.13,4.61
	c0.2,1.96-0.68,4-2.63,6.13c-0.45,0.49-0.95,0.94-1.49,1.36c-0.55,0.42-1.14,0.78-1.78,1.1l-0.61,0.31
	c-0.13,0.08-0.26,0.16-0.37,0.25c-0.11,0.09-0.2,0.16-0.27,0.23C52.02,67,51.94,67.24,52,67.46c0.06,0.23,0.19,0.5,0.39,0.81
	L51.75,68.98z M61.41,56.8l-0.48-0.69c0.69-0.53,1.13-0.99,1.32-1.36c0.31-0.63,0.18-1.33-0.36-2.11L52.82,39.6
	c-0.53-0.76-1.11-1.12-1.75-1.09c-0.38,0.03-1,0.28-1.85,0.76l-0.48-0.68l9.11-6.34l0.48,0.68c-0.76,0.59-1.23,1.08-1.43,1.46
	c-0.31,0.64-0.2,1.34,0.35,2.12l3.88,5.58l6.42-4.46l-3.88-5.58c-0.55-0.78-1.15-1.14-1.82-1.08c-0.41,0.04-1.05,0.32-1.9,0.83
	l-0.48-0.68l9.17-6.38l0.48,0.68c-0.75,0.61-1.21,1.1-1.38,1.47c-0.29,0.61-0.17,1.3,0.37,2.07L77.17,42
	c0.55,0.79,1.19,1.14,1.92,1.05c0.42-0.05,1-0.31,1.74-0.78l0.48,0.68l-9.16,6.38l-0.48-0.68c0.76-0.57,1.23-1.05,1.43-1.46
	c0.3-0.63,0.19-1.33-0.35-2.1l-4.32-6.21L62,43.34l4.32,6.21c0.56,0.8,1.2,1.15,1.94,1.05c0.43-0.06,1.02-0.34,1.78-0.83l0.48,0.68
	L61.41,56.8z M100.5,35.2L82.61,42.1l-0.3-0.78c0.87-0.37,1.44-0.73,1.73-1.08c0.45-0.54,0.5-1.25,0.16-2.12l-5.71-14.82
	c-0.35-0.9-0.87-1.39-1.58-1.47c-0.41-0.06-1.07,0.06-1.98,0.35l-0.3-0.78l17.64-6.8l2.38,6.17l-0.75,0.29
	c-1.15-1.82-2.33-2.92-3.54-3.29c-1.21-0.37-3.05-0.08-5.51,0.87c-0.94,0.36-1.5,0.69-1.67,0.98c-0.18,0.29-0.16,0.73,0.07,1.3
	l2.73,7.09c1.75-0.65,2.81-1.43,3.18-2.32c0.36-0.89,0.38-2.27,0.04-4.13l0.78-0.3l3.98,10.35l-0.78,0.3
	c-0.89-1.66-1.81-2.72-2.76-3.17c-0.95-0.46-2.3-0.35-4.04,0.33l2.86,7.42c0.25,0.64,0.58,1.02,1.01,1.13
	c0.42,0.11,1.15-0.04,2.19-0.44c1.95-0.75,3.4-1.75,4.35-2.98c0.94-1.23,1.49-3.08,1.65-5.53l0.85-0.33L100.5,35.2z M107.47,14.57
	c-0.07-0.5,0.02-0.87,0.26-1.13c0.24-0.25,0.79-0.44,1.66-0.56c1.6-0.22,2.78,0.25,3.56,1.41c0.45,0.68,0.76,1.65,0.93,2.91
	c0.28,2.05,0,3.42-0.84,4.12c-0.84,0.69-2.32,1.2-4.44,1.52L107.47,14.57z M112.99,33.65l-0.11-0.83c-1.15,0.11-1.94,0-2.38-0.35
	c-0.43-0.34-0.73-1.09-0.89-2.23l-0.87-6.37l0.86-0.12l8.13,9.24l6.65-0.91l-0.11-0.78c-0.3,0.02-0.56,0-0.77-0.05
	c-0.21-0.05-0.43-0.19-0.64-0.42l-7.8-8.36c1.08-0.36,2.07-0.99,2.96-1.89c1.16-1.19,1.62-2.67,1.38-4.44
	c-0.33-2.39-1.85-3.87-4.58-4.44c-1.41-0.27-3.19-0.26-5.36,0.04l-10.46,1.43l0.11,0.83c1.13-0.06,1.86,0.02,2.22,0.23
	c0.53,0.32,0.88,1.1,1.05,2.36l1.96,14.37c0.17,1.2,0.07,2.01-0.28,2.43c-0.35,0.42-1.08,0.72-2.17,0.93l0.11,0.83L112.99,33.65z
	 M134.66,32.46l0.19-0.81c0.86,0.16,1.49,0.19,1.89,0.07c0.67-0.19,1.12-0.75,1.34-1.67l3.67-15.45c0.21-0.9,0.09-1.58-0.36-2.03
	c-0.28-0.27-0.88-0.55-1.8-0.87l0.2-0.81l10.8,2.57l-0.2,0.81c-0.95-0.17-1.63-0.2-2.04-0.09c-0.68,0.19-1.13,0.75-1.35,1.67
	l-1.57,6.61l7.6,1.81l1.58-6.61c0.22-0.93,0.08-1.62-0.42-2.07c-0.31-0.28-0.94-0.57-1.88-0.86l0.19-0.81l10.86,2.59l-0.2,0.81
	c-0.95-0.15-1.63-0.17-2.01-0.05c-0.65,0.18-1.08,0.74-1.3,1.65l-3.67,15.44c-0.22,0.94-0.06,1.65,0.49,2.13
	c0.32,0.29,0.9,0.55,1.74,0.78l-0.2,0.81l-10.86-2.59l0.19-0.81c0.92,0.19,1.6,0.22,2.04,0.09c0.67-0.19,1.11-0.74,1.34-1.66
	l1.75-7.35l-7.6-1.81l-1.75,7.36c-0.23,0.95-0.06,1.66,0.52,2.15c0.33,0.27,0.93,0.53,1.81,0.77l-0.2,0.81L134.66,32.46z
	 M166.52,37.08c0.31-1.62,1.07-3.55,2.28-5.79c1.19-2.21,2.37-3.9,3.53-5.05c2.21-2.17,4.4-2.67,6.59-1.49
	c1.57,0.84,2.4,2.29,2.47,4.35c0.08,2.06-0.71,4.62-2.36,7.7c-1.21,2.24-2.4,3.94-3.58,5.1c-2.19,2.13-4.37,2.62-6.53,1.45
	C166.74,42.16,165.94,40.07,166.52,37.08 M170.44,22.74c-2.95,0.93-5.24,2.9-6.86,5.93c-1.48,2.75-1.83,5.58-1.06,8.49
	c0.84,3.11,2.8,5.49,5.89,7.15c2.91,1.56,5.84,1.93,8.78,1.09c3.02-0.86,5.35-2.81,6.98-5.85c1.64-3.04,1.98-6.06,1.03-9.05
	c-0.92-2.92-2.83-5.16-5.75-6.73C176.42,22.14,173.42,21.79,170.44,22.74 M194.1,33.06l8.17,7.49l-0.56,0.61
	c-0.97-0.83-1.72-1.25-2.28-1.28c-0.55-0.03-1.26,0.42-2.11,1.35l-7.42,8.09c-1.13,1.23-1.85,2.31-2.17,3.25
	c-0.62,1.73-0.17,3.28,1.33,4.65c1.86,1.7,3.74,2.16,5.66,1.39c1.05-0.42,2.2-1.32,3.45-2.68l6.78-7.39
	c0.79-0.87,1.18-1.61,1.16-2.23c-0.02-0.62-0.46-1.39-1.33-2.31l0.57-0.62l5.31,4.87l-0.56,0.61c-0.91-0.56-1.59-0.84-2.03-0.85
	c-0.45-0.01-1.03,0.37-1.74,1.15l-7.09,7.74c-1.88,2.05-3.83,3.19-5.85,3.4c-2.02,0.21-4.09-0.66-6.22-2.61
	c-2.78-2.55-3.92-5.12-3.42-7.72c0.27-1.38,1.04-2.77,2.31-4.16l7.41-8.09c0.84-0.92,1.25-1.6,1.22-2.06
	c-0.02-0.46-0.42-1.12-1.17-1.98L194.1,33.06z M195.42,65.48l6.62-4.71l0.54,0.77c-1.68,1.85-2.63,3.59-2.84,5.2
	c-0.22,1.61,0.12,3.05,1.01,4.3c0.87,1.22,1.79,1.86,2.78,1.93c0.99,0.07,1.82-0.14,2.51-0.63c0.8-0.57,1.26-1.3,1.38-2.2
	c0.08-0.6,0-1.62-0.24-3.08l-0.37-2.35c-0.37-2.33-0.39-4.14-0.06-5.44c0.33-1.3,1.12-2.38,2.34-3.26c1.31-0.93,2.86-1.33,4.66-1.2
	c1.8,0.13,3.38,1.16,4.76,3.1c0.69,0.98,1.23,2.04,1.58,3.17s0.58,1.76,0.68,1.89c0.21,0.29,0.44,0.44,0.69,0.43
	c0.25-0.01,0.54-0.08,0.87-0.2l0.57,0.8l-5.82,4.14l-0.53-0.74c1.09-1.32,1.81-2.77,2.15-4.37c0.33-1.59,0.04-3.04-0.87-4.32
	c-0.64-0.9-1.4-1.45-2.27-1.63c-0.87-0.17-1.65-0.01-2.36,0.49c-0.84,0.6-1.3,1.3-1.36,2.09c-0.08,0.79,0.07,2.32,0.43,4.59
	l0.44,2.71c0.2,1.21,0.21,2.28,0.05,3.19c-0.3,1.71-1.18,3.08-2.62,4.11c-1.35,0.96-3,1.33-4.96,1.11c-1.96-0.22-3.77-1.5-5.44-3.85
	c-0.38-0.54-0.72-1.12-1.02-1.75c-0.29-0.62-0.53-1.28-0.7-1.97l-0.17-0.66c-0.05-0.14-0.11-0.28-0.17-0.41
	c-0.06-0.13-0.12-0.23-0.17-0.31c-0.2-0.28-0.42-0.41-0.65-0.4c-0.23,0.01-0.53,0.08-0.88,0.21L195.42,65.48z M213.23,96.08
	l-7.72-17.55l0.76-0.34c0.41,0.85,0.79,1.41,1.16,1.68c0.55,0.42,1.26,0.44,2.13,0.06l14.53-6.39c0.88-0.39,1.34-0.94,1.39-1.65
	c0.04-0.41-0.11-1.07-0.44-1.96l0.76-0.33l7.61,17.3l-6.06,2.66l-0.32-0.73c1.77-1.23,2.81-2.46,3.12-3.69
	c0.31-1.23-0.06-3.05-1.13-5.46c-0.41-0.92-0.76-1.46-1.06-1.63c-0.3-0.17-0.73-0.12-1.3,0.13l-6.95,3.06
	c0.73,1.72,1.55,2.74,2.46,3.07c0.91,0.32,2.28,0.27,4.13-0.15l0.33,0.76l-10.15,4.46l-0.34-0.76c1.61-0.97,2.63-1.93,3.03-2.9
	c0.41-0.97,0.24-2.31-0.51-4.02l-7.27,3.2c-0.64,0.28-1,0.63-1.08,1.06c-0.09,0.43,0.09,1.15,0.54,2.17c0.84,1.91,1.9,3.31,3.18,4.2
	c1.27,0.88,3.14,1.35,5.59,1.39l0.37,0.84L213.23,96.08z M24.01,111.96l-0.84,6.83l-3.91-6.07l-7.55,1.23l5.16-4.92l-3.81-6.04
	l7.02,3.06l5.28-4.98l-0.84,6.81l6.85,2.94L24.01,111.96z M10.68,133.39l-0.3-3.04l20.46-2.01l0.29,3.04l-8.05,0.79l0.58,5.98
	l8.05-0.79l0.3,3.05l-20.45,2.01l-0.3-3.05l8.94-0.88l-0.59-5.97L10.68,133.39z M15.3,158.79l-2.8-11.19l19.94-4.99l2.73,10.92
	l-3.37,0.85l-1.99-7.96l-4.42,1.11l1.85,7.39l-3.36,0.84l-1.85-7.39l-5.42,1.36l2.06,8.22L15.3,158.79z M20.79,173.1l-3.98-9.91
	l18.92-7.59l1.13,2.83l-15.7,6.3l2.84,7.07L20.79,173.1z M40.74,174.63c0.06,0.42-0.05,0.87-0.32,1.33
	c-0.27,0.47-0.71,0.87-1.3,1.21c-0.59,0.33-1.14,0.5-1.67,0.5c-0.53,0.01-0.98-0.13-1.33-0.39c-0.36-0.27-0.81-0.9-1.38-1.88
	l-0.84-1.47l5.07-2.89l0.74,1.3C40.34,173.44,40.68,174.21,40.74,174.63 M30.87,175.65l0.99,1.74c0.92,1.61,1.74,2.64,2.47,3.1
	c0.73,0.45,1.65,0.65,2.77,0.59c1.12-0.06,2.33-0.46,3.62-1.19c1.42-0.81,2.44-1.73,3.05-2.75c0.61-1.02,0.83-2,0.67-2.94
	c-0.11-0.59-0.62-1.68-1.53-3.27l-2.43-4.27l-17.86,10.17l1.51,2.66L30.87,175.65z M47.44,178.22l1.77,2.49l-16.75,11.91l-1.77-2.49
	L47.44,178.22z M37.02,198.5l-1.89-2.14l15.39-13.62l1.97,2.23l-6.16,13.75l10.27-9.1l1.89,2.14L43.1,205.37l-2.04-2.31l5.98-13.46
	L37.02,198.5z M59.97,210.1l-2.71-2.23l2.2-2.68l5.1,4.19l-5.2,6.32c-1.07,0.25-2.27,0.23-3.61-0.06c-1.34-0.29-2.48-0.83-3.43-1.61
	c-1.16-0.95-1.92-2.11-2.28-3.46c-0.36-1.36-0.29-2.88,0.23-4.57c0.52-1.68,1.48-3.38,2.88-5.08c1.44-1.74,2.93-3.02,4.47-3.84
	c1.54-0.81,2.98-1.18,4.33-1.11c1.34,0.07,2.59,0.59,3.75,1.54c1.4,1.15,2.19,2.46,2.38,3.95c0.19,1.48-0.22,3.09-1.24,4.81
	l-2.83-1.33c0.49-0.96,0.69-1.85,0.58-2.67c-0.11-0.81-0.49-1.49-1.14-2.03c-1-0.83-2.18-1.06-3.52-0.7
	c-1.34,0.35-2.74,1.42-4.21,3.21c-1.58,1.91-2.43,3.64-2.58,5.2c-0.13,1.33,0.3,2.41,1.29,3.22c0.46,0.38,1.04,0.66,1.73,0.82
	c0.7,0.17,1.41,0.2,2.15,0.1L59.97,210.1z M70.31,225.79l-2.56-1.26l9.08-18.44l4.11,2.02l-3.73,13.79l8.64-11.37l4.12,2.03
	L80.89,231l-2.55-1.25l7.15-14.51l-9.85,13.18l-2.65-1.3l4.47-15.83L70.31,225.79z M92.19,213.13l2.88,1.02l-6.83,19.38l-2.88-1.02
	L92.19,213.13z M102.88,237.54l-10.36-2.57l4.9-19.79l2.97,0.74l-4.07,16.42l7.4,1.83L102.88,237.54z M109.43,217.68l3.02,0.44
	l-2.99,20.34l-3.02-0.44L109.43,217.68z M120.27,239.41l-3.05-0.16l0.89-17.05l-4.5-0.23l0.18-3.47l12.03,0.63l-0.18,3.47
	l-4.49-0.23L120.27,239.41z M133.41,223.36l2.74,7.42l-4.12,0.36L133.41,223.36z M131.41,218.73l-4.09,20.98l3.24-0.28l0.84-4.76
	l6.03-0.53l1.72,4.53l3.32-0.29l-7.84-19.94L131.41,218.73z M147.44,219.77c1.33-0.32,2.15-0.47,2.45-0.44
	c0.43,0.05,0.81,0.24,1.13,0.57c0.32,0.33,0.57,0.81,0.72,1.45c0.16,0.67,0.18,1.22,0.05,1.68c-0.13,0.46-0.36,0.79-0.7,1.02
	s-1.18,0.5-2.52,0.83l-2.21,0.54l-1.24-5.06L147.44,219.77z M147.13,228.59l0.61-0.15c0.69-0.17,1.21-0.22,1.55-0.14
	c0.35,0.07,0.71,0.27,1.08,0.6c0.37,0.33,1.14,1.18,2.3,2.56l3.22,3.81l3.54-0.87l-2.75-3.46c-1.1-1.39-1.93-2.33-2.5-2.83
	c-0.56-0.5-1.23-0.93-1.99-1.28c1.18-0.55,2-1.38,2.44-2.5c0.44-1.12,0.47-2.46,0.08-4.02c-0.31-1.24-0.78-2.24-1.44-3.02
	c-0.66-0.78-1.37-1.26-2.15-1.45c-0.77-0.19-1.96-0.09-3.56,0.3l-6.26,1.53l4.89,19.96l2.96-0.73L147.13,228.59z M169.5,230.43
	l-2.82,1.15l-3.28-8l-9.64-8.91l3.31-1.36l6.39,6.17l0.17-8.85l3.26-1.33l-0.64,13.15L169.5,230.43z M186.35,221.56l-2.55,1.68
	l-11.35-17.13l8.67-5.74l1.92,2.9l-6.12,4.06l2.68,4.05l5.29-3.5l1.92,2.9l-5.29,3.5L186.35,221.56z M190.12,199.01l6.62,4.32
	l-3.1,2.75L190.12,199.01z M185.75,196.48l9.22,19.29l2.44-2.16l-2.17-4.32l4.53-4.02l4.09,2.61l2.49-2.21l-18.18-11.34
	L185.75,196.48z M210.84,200.61l-1.79,2.21l-15.95-12.95l2.88-3.55l12.62,6.69l-9.16-10.95l2.89-3.56l15.96,12.95l-1.79,2.2
	l-12.56-10.19L214.58,196l-1.86,2.29l-14.45-7.87L210.84,200.61z M203.38,176.46l1.63-2.58l17.37,10.98l-1.63,2.58L203.38,176.46z
	 M229.54,171.51l-4.82,9.51l-18.18-9.2l1.38-2.73l15.09,7.64l3.44-6.8L229.54,171.51z M231.93,165.33l-1.11,2.84l-19.14-7.49
	l1.12-2.84L231.93,165.33z M236.63,150.01l-3.08,11.11l-19.8-5.5l3.01-10.85l3.35,0.93l-2.2,7.9l4.39,1.22l2.04-7.34l3.34,0.93
	l-2.04,7.34l5.39,1.5l2.27-8.17L236.63,150.01z M230.79,145.33l0-3.02c2.65,0,4.09-0.92,4.33-2.77c0.12-0.92-0.06-1.67-0.52-2.27
	c-0.46-0.6-1.09-0.94-1.88-1.05c-0.47-0.06-0.87-0.02-1.22,0.12c-0.35,0.14-0.65,0.39-0.91,0.74c-0.25,0.35-0.73,1.21-1.4,2.59
	c-0.6,1.24-1.2,2.12-1.78,2.66c-0.59,0.54-1.32,0.93-2.2,1.17c-0.88,0.25-1.79,0.31-2.75,0.18c-1.11-0.14-2.08-0.5-2.91-1.07
	c-0.83-0.57-1.42-1.28-1.77-2.14c-0.35-0.86-0.45-1.88-0.3-3.06c0.23-1.77,0.94-3.08,2.14-3.93c1.19-0.85,2.79-1.18,4.77-0.99
	l-0.21,3.07c-1.11-0.01-1.91,0.18-2.4,0.57c-0.49,0.38-0.79,0.99-0.9,1.8c-0.11,0.82,0.01,1.47,0.33,1.96
	c0.32,0.49,0.76,0.77,1.33,0.85c0.56,0.07,1.05-0.07,1.48-0.42c0.43-0.35,0.97-1.22,1.61-2.6c0.69-1.46,1.35-2.5,1.98-3.11
	c0.63-0.61,1.4-1.04,2.3-1.29c0.9-0.25,1.97-0.29,3.19-0.13c1.77,0.23,3.19,0.91,4.27,2.05c1.08,1.14,1.48,2.75,1.21,4.83
	C238.11,143.76,235.51,145.52,230.79,145.33 M226.59,110.74l-0.58-6.86l5.07,5.13l7.12-2.77l-4.03,5.89l4.97,5.12l-7.49-1.54
	l-4.13,5.97l-0.58-6.84l-7.29-1.46L226.59,110.74z"/>
</svg>
