<?xml version="1.0" encoding="utf-8"?>
<!-- Generator: Adobe Illustrator 22.0.1, SVG Export Plug-In . SVG Version: 6.00 Build 0)  -->
<svg version="1.1" id="Layer_1" xmlns="http://www.w3.org/2000/svg" xmlns:xlink="http://www.w3.org/1999/xlink" x="0px" y="0px"
	 viewBox="0 0 315 171.3" style="enable-background:new 0 0 315 171.3;" xml:space="preserve">
<style type="text/css">
	.st0{fill:#006B35;}
	.st1{fill:#DD971A;}
	.st2{fill:#FFFFFF;}
	.st3{fill:#E82C2E;}
	.st4{fill:#004E95;}
	.st5{fill:#E7A614;}
</style>
<g>
	<g>
		<g>
			<polyline class="st0" points="70.6,122.1 60.7,122.1 83.2,85.3 61,49.3 70.9,49.3 93.2,85.3 70.6,122.1 			"/>
			<polyline class="st1" points="84.4,122.1 74.4,122.1 97,85.3 74.7,49.3 84.7,49.3 107,85.3 84.4,122.1 			"/>
			<g>
				<polygon class="st2" points="38.7,55.9 38.7,115.8 60.8,115.8 79.6,85 61.8,55.9 				"/>
				<polygon points="47,62.3 47.1,62.3 47,62.1 				"/>
				<polygon class="st3" points="47,71.5 71.4,71.5 68.2,66.3 47,66.3 				"/>
				<polygon class="st3" points="46.9,61.1 65.2,61.1 62,55.9 46.9,55.9 				"/>
				<rect x="46.8" y="66.3" width="0.2" height="5.2"/>
				<polygon class="st3" points="47,80 76.5,80 73.5,75 47,75 				"/>
				<polygon class="st3" points="47,88.6 77.4,88.6 79.6,85 79,84 47,84 				"/>
				<polygon class="st2" points="42.1,64.3 42.9,63.7 43.8,64.3 43.6,63.3 44.2,62.7 43.2,62.5 42.8,61.6 42.6,62.5 41.8,62.8 
					42.3,63.3 				"/>
				<path class="st4" d="M42,84.9l-0.6-0.7l0.9-0.3l0.3-1.1l0.4,1.1l1.2,0.2l-0.7,0.7l0.2,1.2l-1.1-0.7L41.8,86L42,84.9z M42,79.8
					l-0.6-0.7l0.9-0.3l0.3-1.1l0.4,1.1l1.2,0.2l-0.7,0.7l0.2,1.2l-1.1-0.7l-0.9,0.7L42,79.8z M42,73.3l-0.6-0.7l0.9-0.3l0.3-1.1
					l0.4,1.1l1.2,0.2l-0.7,0.7l0.2,1.2l-1.1-0.7l-0.9,0.7L42,73.3z M41.9,67.1l-0.6-0.7l0.9-0.3l0.3-1.1l0.4,1.1l1.2,0.2L43.5,67
					l0.2,1.2l-1.1-0.7l-0.9,0.7L41.9,67.1z M41.9,61.6l-0.6-0.7l0.9-0.3l0.3-1.1l0.4,1.1l1.2,0.2l-0.7,0.7l0.2,1.2l-1.1-0.7
					l-0.9,0.7L41.9,61.6z M38.7,55.9v32.7H45h2V84v-4v-5v-3.5h-0.2v-5.2H47l-0.1-10.4H38.7z"/>
				<polygon class="st3" points="38.8,92.7 38.8,97.4 72,97.4 74.9,92.7 				"/>
				<polygon class="st3" points="38.7,101.2 38.7,105.8 66.9,105.8 69.7,101.2 				"/>
				<polygon class="st3" points="38.7,110.2 38.7,115.8 61,115.8 64.4,110.2 				"/>
			</g>
		</g>
		<g>
			<path class="st0" d="M129.4,67.3c-1.5,0.5-3,0.5-3.2,0.5c-3.2,0-5.6-2.5-5.6-5.9c0-4,2.9-5.9,5.9-5.9c0.7,0,1.3,0.1,2,0.4
				c0.2,0.1,0.5,0.2,0.7,0.2c0.2,0,0.3-0.1,0.4-0.2l0.2,0.1c-0.1,0.4-0.4,2.1-0.5,2.5l-0.3-0.1c-0.1-0.8-0.1-1-0.3-1.3
				c-0.2-0.3-1.2-1-2.6-1c-3.7,0-3.7,4.2-3.7,5.1c0,5,3.3,5.4,3.9,5.4c1.4,0,2.7-0.8,3.1-2.4l0.4,0.1c0,0.3,0,0.4-0.1,0.9
				c0,0.1-0.2,0.8-0.2,0.9L129.4,67.3z"/>
			<path class="st0" d="M134,62.9c0.4,0.1,1.1,0.2,1.8,0.2c0.5,0,0.8,0,1.1-0.1c-0.4-1.4-0.9-2.7-1.4-4L134,62.9z M130.9,67.3
				c0.3-0.1,0.7-0.2,1-0.7c0.6-1,3.4-8.8,3.6-9.4c0.2-0.5,0.3-0.8,0.4-1.1h0.4c0.1,0.4,0.2,0.8,0.4,1.4c0.3,1.1,2,5.8,2.3,6.8
				c1,2.9,1.2,3,1.9,3.1v0.4c-0.4,0-0.8-0.1-1.4-0.1c-1,0-1.8,0.1-2.3,0.1v-0.4c0.4-0.1,0.8-0.3,0.8-0.7c0-0.3-0.8-2.7-0.9-2.9
				c-0.3,0-0.5-0.1-1.2-0.1c-0.6,0-1.4,0-2.2,0.1l-0.5,1.3c-0.1,0.3-0.4,1.1-0.4,1.3c0,0.7,0.8,0.8,1.3,0.9v0.4c-0.1,0-0.6,0-1.1,0
				c-0.5,0-0.9,0-1,0c-0.2,0-0.9,0-1.2,0V67.3z"/>
			<path class="st0" d="M141.9,67.1c0.3,0,0.7-0.1,0.9-0.4c0.3-0.4,0.3-0.6,0.3-5c0-3.4,0-3.7-0.1-4.2c-0.1-0.8-0.6-0.8-1-0.9v-0.4
				c0.6,0,0.8,0,2,0c1.3,0,1.6,0,2.2-0.1v0.5c-0.5,0.1-1,0.2-1.2,0.5c-0.2,0.5-0.3,3.8-0.3,4.6l0,2.8c0,1.1,0,1.7,0.2,2
				c0.1,0.3,0.5,0.3,1.3,0.3c3.2,0,3.6-0.8,3.9-1.7l0.4,0.1c-0.1,0.6-0.1,0.7-0.6,2.6c-0.7-0.1-1.1-0.2-3.3-0.2h-4.6L141.9,67.1z"/>
			<path class="st0" d="M160,63c0.3,0,2.3,0,2.3-3c0-2.5-1.3-3.3-2.3-3.3c-0.4,0-0.7,0.1-0.9,0.2c-0.1,2.9-0.1,3.2-0.1,5.9
				C159.2,62.8,159.6,63,160,63 M160.6,67.8c-0.3,0-0.5-0.1-0.9-0.1c-0.3,0-0.8,0-1.4,0c-0.6,0-0.7,0-1.7,0.1c-0.1,0-0.4,0-0.4,0
				v-0.5c0.9-0.3,1-0.4,1-0.6c0.1-0.5,0.1-2.6,0.1-3.2c0-0.8,0-1.1-0.1-4c0-2.7-0.1-2.8-1.2-2.8c0-0.1,0-0.2,0-0.3
				c0-0.1,0-0.2,0-0.3c0.2,0,1.5,0.1,2.1,0.1l1.6-0.1c2.7,0,4.4,1.9,4.4,3.8c0,1.2-1,3.7-4.6,3.7c-0.2,0-0.5,0-0.7,0
				c0,0.6,0,2.8,0.1,3.2c0.1,0.4,0.8,0.6,1.5,0.6V67.8z"/>
			<path class="st0" d="M167.4,60.9c0,3,1.3,6.4,4,6.4c1.1,0,3.3-0.7,3.3-4.1c0-2.4-1-6.4-4-6.4C169.9,56.8,167.4,57.2,167.4,60.9
				 M176.6,62c0,3.1-2.2,6-5.5,6c-3.5,0-5.5-2.9-5.5-6.1c0-3.6,2.8-5.8,5.6-5.8C174.2,56,176.6,58.6,176.6,62"/>
			<path class="st0" d="M178,67.1c0.3,0,0.7-0.1,0.9-0.4c0.3-0.4,0.3-0.6,0.3-5c0-3.4,0-3.7-0.1-4.2c-0.1-0.8-0.6-0.8-1-0.9v-0.4
				c0.6,0,0.8,0,2,0c1.3,0,1.6,0,2.2-0.1v0.5c-0.5,0.1-1,0.2-1.2,0.5c-0.2,0.5-0.3,3.8-0.3,4.6l0,2.8c0,1.1,0,1.7,0.2,2
				c0.1,0.3,0.5,0.3,1.3,0.3c3.2,0,3.6-0.8,3.9-1.7l0.4,0.1c-0.1,0.6-0.1,0.7-0.6,2.6c-0.7-0.1-1.1-0.2-3.3-0.2h-4.6L178,67.1z"/>
			<path class="st0" d="M189.1,67.3c1-0.1,1.2-0.3,1.3-0.7c0.1-0.4,0.1-2.9,0.1-3.5c0-0.2,0-0.3,0-0.6c-0.5-0.9-0.9-1.7-2.7-4.2
				c-0.6-0.9-1.1-1.5-2.2-1.5l-0.1-0.4c0.2,0,0.6,0,1.1,0c0.5,0,1,0,1.1,0l2.3,0l-0.1,0.5c-0.1,0-0.9,0-0.9,0.3
				c0,0.3,1.8,3.1,2.8,4.4c2.1-3.6,2.2-3.8,2.2-4.2c0-0.5-0.6-0.5-1-0.6l0.1-0.5c0.3,0,1.8,0.1,1.8,0.1c0.3,0,1.4,0,1.6,0l0,0.5
				c-1.2,0.1-1.5,0.1-4.1,4.9c-0.1,0.1-0.1,0.4-0.3,0.5c0,0.7,0,4,0.1,4.4c0.1,0.4,1,0.6,1.4,0.7l0,0.4c-0.5-0.1-1.4-0.1-2.1-0.1
				c-0.4,0-2.1,0.2-2.4,0.2L189.1,67.3z"/>
			<path class="st0" d="M206.2,63c0.3,0,2.3,0,2.3-3c0-2.5-1.3-3.3-2.3-3.3c-0.4,0-0.7,0.1-0.9,0.2c-0.1,2.9-0.1,3.2-0.1,5.9
				C205.4,62.8,205.8,63,206.2,63 M206.7,67.8c-0.3,0-0.5-0.1-0.9-0.1c-0.3,0-0.8,0-1.4,0c-0.6,0-0.7,0-1.7,0.1c-0.1,0-0.4,0-0.4,0
				v-0.5c0.9-0.3,1-0.4,1-0.6c0.1-0.5,0.1-2.6,0.1-3.2c0-0.8,0-1.1-0.1-4c-0.1-2.7-0.1-2.8-1.2-2.8c0-0.1,0-0.2,0-0.3
				c0-0.1,0-0.2,0-0.3c0.2,0,1.5,0.1,2.1,0.1l1.6-0.1c2.7,0,4.4,1.9,4.4,3.8c0,1.2-1,3.7-4.6,3.7c-0.2,0-0.5,0-0.7,0
				c0,0.6,0,2.8,0.1,3.2c0.1,0.4,0.8,0.6,1.5,0.6V67.8z"/>
			<path class="st0" d="M213.6,60.9c0,3,1.3,6.4,4,6.4c1.1,0,3.3-0.7,3.3-4.1c0-2.4-1-6.4-4-6.4C216.1,56.8,213.6,57.2,213.6,60.9
				 M222.8,62c0,3.1-2.2,6-5.5,6c-3.5,0-5.5-2.9-5.5-6.1c0-3.6,2.8-5.8,5.6-5.8C220.3,56,222.8,58.6,222.8,62"/>
			<path class="st0" d="M225.9,60c0-0.5,0-1,0-1.3c0-1.5-0.5-1.9-1.9-2l0-0.5c0.1,0,0.6,0,0.9,0.1c1.6,0.1,1.7,0.1,2.4,0.1
				c1.2,2.9,1.5,3.6,2.8,6c0.2,0.3,1.1,2.3,1.2,2.3c0.4-0.8,0.4-0.9,1-2.2l0.9-1.8l2-4.3c0.4,0,2.4,0,2.8,0v0.5
				c-1.2,0.2-1.5,0.3-1.5,2.2c0,0.6,0.1,6.3,0.3,7.3c0.1,0.6,0.3,0.7,1.3,0.8v0.5c-0.7,0-1,0-2,0c-1.4,0-1.7,0-2.5,0.1l0-0.5
				c1.2-0.3,1.5-0.5,1.5-2.5c0-1.8-0.1-4.3-0.2-6.1h0c-2.1,4.4-2.9,6.3-3.9,8.9h-0.3c-0.4-1.6-0.6-2-2.4-5.7
				c-0.4-0.9-1.1-2.3-1.3-2.8h0c0,0.6,0,0.7-0.1,1.4c-0.1,1.8-0.3,3.4-0.3,5c0,1.2,0.1,1.5,1.5,1.7l0,0.4c-0.8,0-1.5,0-2,0
				c-0.4,0-0.7,0-1.1,0c-0.3,0-0.6,0-0.9,0.1l0-0.4c1.6-0.2,1.6-1.1,1.7-3.3L225.9,60z"/>
			<path class="st0" d="M241.2,60.9c0,3,1.3,6.4,4,6.4c1.1,0,3.3-0.7,3.3-4.1c0-2.4-1-6.4-4-6.4C243.7,56.8,241.2,57.2,241.2,60.9
				 M250.3,62c0,3.1-2.2,6-5.5,6c-3.5,0-5.5-2.9-5.5-6.1c0-3.6,2.8-5.8,5.6-5.8C247.9,56,250.3,58.6,250.3,62"/>
			<path class="st0" d="M261.6,64.5c0-0.6,0-3.1,0-3.7c0-3.9-0.1-4.1-1.7-4.3l0.1-0.4c0.1,0,0.2,0,0.4,0c0.1,0,0.5,0,0.9,0.1
				c0.4,0.1,0.8,0.1,0.9,0.1c0.1,0,1.1,0,1.4,0v0.5c-0.2,0-0.7,0-0.9,0.4c-0.3,0.7-0.3,3.8-0.3,4.7c0,0.6-0.1,3.3-0.1,3.9
				c0,0.2,0,1,0.1,1.5l0,0.7H262c-0.6-1.2-1.4-2.1-2.3-3l-5.1-5.4c-0.2-0.2-0.5-0.5-0.7-0.7c0,0.4-0.1,1.2-0.1,1.6l-0.1,4.3
				c0,1.7,0,2.4,1.8,2.7c0,0.1,0,0.2,0,0.3c0,0,0,0.1,0,0.3c-0.4-0.1-0.8-0.1-1-0.1c-0.3,0-0.4,0-0.5,0c-0.4,0-2,0.1-2.3,0.1
				c0-0.2,0-0.3,0-0.5c1,0,1.1-0.7,1.2-2.2l0.1-5.4c0-1.5,0-2.8-1.4-3c0-0.2,0-0.3,0-0.5c0.1,0,0.4,0,0.8,0.1c0.3,0,0.7,0,0.8,0h0.8
				c1,1.3,1.1,1.4,3.8,4.3c0.8,0.8,1.5,1.7,2.3,2.5L261.6,64.5z"/>
			<path class="st0" d="M267.2,62.9c0.4,0.1,1.1,0.2,1.8,0.2c0.5,0,0.8,0,1.1-0.1c-0.4-1.4-0.9-2.7-1.4-4L267.2,62.9z M264,67.3
				c0.3-0.1,0.7-0.2,1-0.7c0.6-1,3.4-8.8,3.6-9.4c0.2-0.5,0.3-0.8,0.4-1.1h0.4c0.1,0.4,0.2,0.8,0.4,1.4c0.3,1.1,2,5.8,2.3,6.8
				c1,2.9,1.2,3,1.9,3.1v0.4c-0.4,0-0.8-0.1-1.5-0.1c-1,0-1.8,0.1-2.3,0.1v-0.4c0.4-0.1,0.8-0.3,0.8-0.7c0-0.3-0.8-2.7-0.9-2.9
				c-0.3,0-0.5-0.1-1.2-0.1c-0.6,0-1.4,0-2.2,0.1l-0.5,1.3c-0.1,0.3-0.4,1.1-0.4,1.3c0,0.7,0.8,0.8,1.3,0.9v0.4c-0.1,0-0.6,0-1.1,0
				c-0.5,0-0.9,0-1,0c-0.2,0-0.9,0-1.2,0V67.3z"/>
		</g>
		<g>
			<path class="st5" d="M135,87.7l-0.8-2.9l1.8-6.4c0.1-0.4,0.2-0.7,0.2-0.7c0-0.2,0-0.5-0.2-0.7c-0.2-0.4-0.4-0.6-0.8-0.7l-0.5-0.2
				c-0.4-0.1-0.6-0.4-0.6-0.8c0-0.3,0.1-0.5,0.3-0.6c0.2-0.1,0.5-0.2,0.9-0.2h3.7c0.5,0,0.8,0,0.9,0.1c0.2,0.2,0.4,0.4,0.4,0.7
				c0,0.2,0,0.3-0.1,0.5c-0.1,0.1-0.2,0.2-0.4,0.3l-0.8,0.4c-0.3,0.2-0.6,0.5-0.9,0.9c-0.3,0.5-0.5,1-0.7,1.6L135,87.7z M134.4,89.9
				l-1.5,5.3h-4L123.5,77c-0.1-0.3-0.2-0.5-0.2-0.6c-0.1-0.1-0.2-0.2-0.3-0.3c-0.3-0.1-0.5-0.3-0.6-0.4c-0.1-0.1-0.2-0.3-0.2-0.5
				c0-0.3,0.1-0.5,0.4-0.7c0.2-0.1,0.6-0.2,1.1-0.2h6.8c0.4,0,0.7,0,0.9,0c0.2,0,0.3,0.1,0.4,0.1c0.1,0.1,0.2,0.2,0.3,0.3
				c0.1,0.1,0.1,0.3,0.1,0.4c0,0.4-0.2,0.6-0.5,0.8c-0.3,0.1-0.4,0.3-0.5,0.4c-0.1,0.1-0.1,0.3-0.1,0.6c0,0.2,0,0.3,0,0.4
				L134.4,89.9z"/>
			<path class="st5" d="M151.6,95.3v-1.7c0.7-0.1,1.2-0.2,1.6-0.4c0.4-0.2,0.9-0.5,1.3-0.8c0.4-0.4,0.8-0.8,1-1.2
				c0.3-0.4,0.5-0.9,0.7-1.6c0.1-0.3,0.2-0.5,0.4-0.7c0.1-0.1,0.3-0.2,0.5-0.2c0.3,0,0.5,0.1,0.6,0.3c0.1,0.2,0.2,0.5,0.2,0.9v5.4
				H151.6z M151.5,74.4h6.2v5.4c0,0.3-0.1,0.5-0.2,0.7c-0.1,0.1-0.3,0.2-0.6,0.2c-0.2,0-0.4,0-0.5-0.1c-0.1-0.1-0.2-0.3-0.3-0.6
				c-0.4-1.2-1-2.1-1.7-2.7c-0.7-0.6-1.7-1-2.9-1.1V74.4z M151.5,85.5v-1.8c0.6-0.3,1-0.6,1.3-0.9c0.3-0.3,0.5-0.8,0.6-1.3
				c0.1-0.4,0.2-0.7,0.3-0.8c0.1-0.1,0.3-0.2,0.6-0.2c0.3,0,0.5,0.1,0.7,0.4c0.1,0.1,0.1,0.4,0.1,0.9v5.8c0,0.5-0.1,0.8-0.2,1
				c-0.1,0.2-0.3,0.3-0.6,0.3c-0.2,0-0.4-0.1-0.6-0.2c-0.1-0.1-0.2-0.4-0.3-0.7c-0.2-0.7-0.4-1.2-0.7-1.6
				C152.4,85.9,152,85.7,151.5,85.5 M150.2,74.4v20.9h-6.8H143c-0.4,0-0.7-0.1-0.8-0.2c-0.2-0.1-0.3-0.3-0.3-0.6
				c0-0.4,0.2-0.7,0.6-0.8c0.3-0.1,0.5-0.2,0.6-0.2c0.1,0,0.1-0.1,0.2-0.2c0.1-0.2,0.2-0.4,0.2-0.8V77.2c0-0.4-0.1-0.6-0.2-0.8
				c-0.1-0.1-0.1-0.2-0.2-0.2c-0.1,0-0.3-0.1-0.6-0.2c-0.4-0.1-0.6-0.4-0.6-0.8c0-0.3,0.1-0.5,0.3-0.6c0.2-0.1,0.5-0.2,0.8-0.2h0.4
				H150.2z"/>
			<path class="st5" d="M176.9,74.4v6.2c0,0.3-0.1,0.5-0.3,0.7c-0.2,0.2-0.4,0.3-0.6,0.3c-0.3,0-0.5-0.1-0.6-0.3
				c-0.2-0.2-0.3-0.4-0.3-0.7l-0.2-0.9c-0.2-0.9-0.4-1.8-0.9-2.5c-0.3-0.4-0.6-0.8-1.1-1.1v-1.8H176.9z M171.6,74.4v17.9
				c0,0.4,0.1,0.7,0.2,0.9c0.1,0.1,0.2,0.2,0.2,0.2c0.1,0,0.3,0.1,0.7,0.2c0.5,0.1,0.7,0.4,0.7,0.8c0,0.3-0.1,0.5-0.4,0.6
				c-0.2,0.1-0.5,0.2-1,0.2h-0.5h-6.8h-0.5c-0.4,0-0.8-0.1-1-0.2c-0.2-0.1-0.3-0.3-0.3-0.6c0-0.4,0.2-0.7,0.7-0.8
				c0.4-0.1,0.6-0.2,0.7-0.2c0.1,0,0.1-0.1,0.2-0.2c0.2-0.2,0.2-0.5,0.2-0.9V74.4H171.6z M159.6,74.4h4v1.8
				c-0.5,0.3-0.8,0.6-1.1,1.1c-0.4,0.7-0.7,1.5-0.9,2.5l-0.2,0.9c-0.1,0.3-0.2,0.5-0.3,0.7c-0.2,0.2-0.4,0.3-0.6,0.3
				c-0.3,0-0.5-0.1-0.6-0.3c-0.2-0.2-0.3-0.4-0.3-0.7V74.4z"/>
			<path class="st5" d="M188.5,95.3v-1.7c0.7-0.1,1.2-0.2,1.6-0.4c0.4-0.2,0.9-0.5,1.3-0.8c0.4-0.4,0.8-0.8,1-1.2
				c0.3-0.4,0.5-0.9,0.7-1.6c0.1-0.3,0.2-0.5,0.3-0.7c0.1-0.1,0.3-0.2,0.5-0.2c0.3,0,0.5,0.1,0.6,0.3c0.1,0.2,0.2,0.5,0.2,0.9v5.4
				H188.5z M188.5,74.4h6.2v5.4c0,0.3-0.1,0.5-0.2,0.7c-0.1,0.1-0.3,0.2-0.6,0.2c-0.2,0-0.4,0-0.5-0.1c-0.1-0.1-0.2-0.3-0.3-0.6
				c-0.4-1.2-1-2.1-1.7-2.7c-0.7-0.6-1.7-1-2.9-1.1V74.4z M188.4,85.5v-1.8c0.6-0.3,1-0.6,1.3-0.9c0.3-0.3,0.5-0.8,0.6-1.3
				c0.1-0.4,0.2-0.7,0.3-0.8c0.1-0.1,0.3-0.2,0.6-0.2c0.3,0,0.6,0.1,0.7,0.4c0.1,0.1,0.1,0.4,0.1,0.9v5.8c0,0.5-0.1,0.8-0.2,1
				c-0.1,0.2-0.3,0.3-0.6,0.3c-0.2,0-0.4-0.1-0.6-0.2c-0.1-0.1-0.2-0.4-0.3-0.7c-0.2-0.7-0.4-1.2-0.7-1.6
				C189.3,85.9,188.9,85.7,188.4,85.5 M187.1,74.4v20.9h-6.8h-0.4c-0.4,0-0.6-0.1-0.8-0.2c-0.2-0.1-0.3-0.3-0.3-0.6
				c0-0.4,0.2-0.7,0.6-0.8c0.3-0.1,0.5-0.2,0.6-0.2c0.1,0,0.1-0.1,0.2-0.2c0.1-0.2,0.2-0.4,0.2-0.8V77.2c0-0.4-0.1-0.6-0.2-0.8
				c-0.1-0.1-0.1-0.2-0.2-0.2c-0.1,0-0.3-0.1-0.6-0.2c-0.4-0.1-0.6-0.4-0.6-0.8c0-0.3,0.1-0.5,0.3-0.6c0.2-0.1,0.5-0.2,0.8-0.2h0.4
				H187.1z"/>
			<path class="st5" d="M210.2,85.1c0.9,0.1,1.7,0.3,2.2,0.5c0.5,0.2,1,0.4,1.4,0.7c0.4,0.3,0.8,0.7,1,1.1c0.2,0.4,0.3,0.9,0.3,1.4
				v3.2c0,0.3,0.1,0.5,0.3,0.5c0.1,0,0.2,0,0.2-0.1c0.1,0,0.1-0.1,0.2-0.3c0.3-0.3,0.5-0.5,0.8-0.5c0.2,0,0.3,0.1,0.5,0.3
				c0.2,0.2,0.3,0.4,0.3,0.5c0,0.3-0.1,0.7-0.4,1.2c-0.3,0.5-0.7,0.9-1.1,1.2c-0.4,0.3-0.9,0.6-1.4,0.7c-0.5,0.1-1.1,0.2-1.7,0.2
				c-1.3,0-2.4-0.4-3.1-1.2c-0.8-0.8-1.1-1.8-1.1-3.2v-2.6c0-0.6,0-0.9,0-1c-0.1-0.4-0.2-0.8-0.4-1.1c-0.3-0.4-0.7-0.6-1.3-0.6v-1.6
				c0.5-0.1,0.9-0.2,1.2-0.4c0.2-0.2,0.3-0.4,0.4-0.6c0.1-0.2,0.1-0.6,0.1-1v-4c0-0.6-0.1-1.1-0.4-1.4c-0.3-0.3-0.7-0.6-1.4-0.8
				v-1.7h0.4c1.1,0,2.1,0,2.9,0.1c1.2,0.1,2.2,0.5,3.2,1.2c1.3,0.9,2,2.3,2,4c0,1.4-0.4,2.6-1.3,3.5c-0.4,0.4-0.8,0.7-1.3,0.9
				C212,84.5,211.2,84.7,210.2,85.1 M205.5,74.4v17.9c0,0.4,0.1,0.7,0.2,0.9c0.1,0.1,0.2,0.2,0.2,0.2c0.1,0,0.3,0.1,0.7,0.2
				c0.5,0.1,0.7,0.4,0.7,0.8c0,0.3-0.1,0.5-0.4,0.6c-0.2,0.1-0.5,0.2-1,0.2h-0.5h-6.8h-0.4c-0.4,0-0.7-0.1-0.8-0.2
				c-0.2-0.1-0.3-0.3-0.3-0.6c0-0.4,0.2-0.7,0.6-0.8c0.3-0.1,0.5-0.2,0.6-0.2c0.1,0,0.1-0.1,0.2-0.2c0.1-0.2,0.2-0.4,0.2-0.8V77.2
				c0-0.4-0.1-0.6-0.2-0.8c-0.1-0.1-0.1-0.2-0.2-0.2c-0.1,0-0.3-0.1-0.6-0.2c-0.4-0.1-0.6-0.4-0.6-0.8c0-0.3,0.1-0.5,0.3-0.6
				c0.2-0.1,0.5-0.2,0.8-0.2h0.4H205.5z"/>
			<path class="st5" d="M225.1,74.4h6.2l4.2,17.9c0.1,0.3,0.2,0.6,0.3,0.8c0.1,0.2,0.3,0.4,0.6,0.5c0.3,0.1,0.4,0.2,0.5,0.3
				c0.1,0.1,0.2,0.3,0.2,0.5c0,0.5-0.4,0.8-1.2,0.8h-7.6c-0.3,0-0.6-0.1-0.7-0.2c-0.2-0.1-0.3-0.3-0.3-0.6c0-0.2,0-0.4,0.1-0.5
				c0.1-0.1,0.3-0.2,0.5-0.4c0.2-0.1,0.3-0.2,0.4-0.3c0.1-0.1,0.1-0.3,0.1-0.5c0-0.2,0-0.3,0-0.5l-0.5-2.2h-4.3l0.4-1.8h3.4
				l-2.8-12.4L225.1,74.4z M224.1,78.3l0.8,3.2l-2.7,9.9c-0.1,0.3-0.1,0.5-0.1,0.8c0,0.6,0.3,1.1,0.9,1.4l0.5,0.2
				c0.3,0.2,0.5,0.4,0.5,0.8c0,0.5-0.4,0.8-1.1,0.8H219c-0.4,0-0.7-0.1-0.9-0.2c-0.2-0.2-0.3-0.4-0.3-0.7c0-0.3,0.2-0.5,0.7-0.7
				c0.4-0.2,0.7-0.3,0.9-0.5c0.2-0.1,0.4-0.3,0.6-0.6c0.3-0.4,0.5-1,0.7-1.7L224.1,78.3z"/>
			<path class="st5" d="M255.2,86.1l-1.6-2.7v-4.2c0-0.9-0.1-1.5-0.4-2c-0.2-0.5-0.7-0.8-1.3-1.2c-0.2-0.1-0.4-0.2-0.4-0.3
				c-0.1-0.1-0.1-0.3-0.1-0.4c0-0.3,0.1-0.5,0.3-0.6c0.2-0.1,0.5-0.2,0.9-0.2h3.8c0.5,0,0.9,0.1,1,0.2c0.2,0.2,0.3,0.4,0.3,0.6
				c0,0.2,0,0.4-0.1,0.5c-0.1,0.1-0.3,0.3-0.7,0.4c-0.5,0.3-0.9,0.7-1.2,1.3c-0.2,0.4-0.3,1-0.3,1.7V86.1z M247,74.4l8.1,14.1v6.7
				H251l-10.4-17.9c-0.2-0.4-0.4-0.7-0.6-0.8c-0.1-0.2-0.3-0.3-0.6-0.3l-0.6-0.2c-0.2-0.1-0.3-0.1-0.4-0.3c-0.1-0.1-0.1-0.3-0.1-0.4
				c0-0.2,0-0.3,0.1-0.5c0.1-0.1,0.2-0.2,0.4-0.3c0.2-0.1,0.6-0.1,1.4-0.1H247z M240.6,79.8l1.6,2.7v8.2c0,0.7,0.1,1.3,0.4,1.8
				c0.2,0.5,0.6,0.8,1.1,1.1l0.5,0.3c0.3,0.2,0.4,0.4,0.4,0.7c0,0.2-0.1,0.4-0.3,0.6c-0.2,0.1-0.5,0.2-1,0.2h-3.5
				c-0.9,0-1.4-0.3-1.4-0.8c0-0.2,0-0.3,0.1-0.4c0.1-0.1,0.3-0.3,0.6-0.4c1-0.5,1.5-1.5,1.5-2.9V79.8z"/>
			<path class="st5" d="M267.6,75.8v-1.7c0.6,0,1.1,0.1,1.6,0.2c0.4,0.1,1.1,0.3,1.9,0.7c0.2,0.1,0.4,0.1,0.5,0.1
				c0.2,0,0.3-0.1,0.4-0.2l0.3-0.4c0.2-0.2,0.4-0.3,0.6-0.3c0.3,0,0.5,0.1,0.6,0.3c0.1,0.2,0.2,0.5,0.2,0.9v5c0,0.3-0.1,0.5-0.3,0.7
				s-0.4,0.3-0.6,0.3c-0.2,0-0.4-0.1-0.6-0.2c-0.1-0.1-0.2-0.2-0.2-0.3c-0.1-0.1-0.1-0.3-0.2-0.6c-0.1-0.5-0.3-1-0.6-1.5
				c-0.3-0.5-0.6-1-1-1.4C269.7,76.6,268.8,76,267.6,75.8 M265.6,93.9v1.7c-0.8,0-1.8-0.2-2.8-0.7c-0.4-0.2-0.6-0.3-0.8-0.3
				c-0.1-0.1-0.3-0.1-0.4-0.1c-0.2,0-0.4,0-0.5,0.1c-0.1,0.1-0.3,0.2-0.5,0.5c-0.2,0.2-0.4,0.3-0.6,0.3c-0.6,0-0.9-0.4-0.9-1.3v-5.6
				c0-0.3,0.1-0.5,0.2-0.7c0.2-0.2,0.4-0.3,0.6-0.3c0.2,0,0.4,0.1,0.5,0.2c0.1,0.1,0.2,0.4,0.3,0.7c0.2,0.9,0.6,1.7,1,2.5
				c0.4,0.8,1,1.4,1.6,1.9C264.2,93.4,264.9,93.8,265.6,93.9 M266.4,74v1.8c-0.6,0.2-1.1,0.4-1.4,0.8c-0.3,0.4-0.5,0.8-0.5,1.3
				c0,0.5,0.1,1,0.4,1.3c0.3,0.4,0.7,0.7,1.3,1.1c0.4,0.2,1.4,0.7,2.9,1.3c0.9,0.4,1.6,0.8,2.1,1.1c0.5,0.3,1,0.7,1.4,1.2
				c1.2,1.3,1.8,2.8,1.8,4.5c0,1.3-0.3,2.5-1,3.6c-0.7,1.1-1.5,1.9-2.7,2.6c-0.6,0.3-1.3,0.6-2,0.8c-0.7,0.2-1.4,0.3-2,0.3v-1.7
				c0.9-0.2,1.5-0.5,1.9-0.9c0.4-0.4,0.6-0.9,0.6-1.5c0-0.7-0.3-1.3-0.9-1.8c-0.4-0.3-1.2-0.8-2.3-1.3c-1.3-0.6-2.1-0.9-2.6-1.2
				c-0.5-0.2-0.9-0.5-1.3-0.8c-1.9-1.4-2.9-3.2-2.9-5.5c0-1.2,0.2-2.2,0.7-3.2c0.5-1,1.1-1.8,2-2.4C263.2,74.6,264.7,74.1,266.4,74"
				/>
		</g>
		<g>
			<path class="st0" d="M129.7,101.7c1.9,0,3.7,1.1,3.7,2.9v2.5c0,0.7-0.5,1.4-1.5,1.8c1,0.4,1.6,1.1,1.6,1.8v2.6
				c0,0.9,0.3,1.6,0.5,2.3h-3.7c-0.3-0.6-0.5-1.4-0.5-2.1v-2.4c0-0.3-0.3-0.7-0.8-0.7H128v5.3h-4v-13.8H129.7z M129,107.6
				c0.4,0,0.7-0.2,0.7-0.5v-2c0-0.4-0.2-0.5-0.7-0.5h-1v3.1H129z"/>
			<path class="st0" d="M142.9,104.4H139v2.7h2.5v2.6H139v2.9h3.8v2.9h-7.8v-13.8h7.8V104.4z"/>
			<path class="st0" d="M149,115.8c-3,0-4.9-1.3-4.9-3.4v-1.6h3.5v1.2c0,0.5,0.4,0.9,1.2,0.9c0.8,0,1.1-0.3,1.1-0.9
				c0-1.1-0.9-1.6-3-2.8c-1.9-1.1-2.7-2.6-2.7-4.2c0-1.9,1.6-3.7,4.9-3.7c2.6,0,4.4,1.5,4.4,3.4v1.4h-3.5V105c0-0.5-0.4-0.8-0.9-0.8
				s-1.1,0.3-1.1,0.8c0,1.4,0.5,1.6,2.6,2.7c1.9,1,3,2.7,3,4.4C153.7,114,152,115.8,149,115.8z"/>
			<path class="st0" d="M159.8,115.8c-2.8,0-4.9-1.5-4.9-3.4v-7.6c0-1.9,2.1-3.4,4.9-3.4s4.9,1.5,4.9,3.4v7.6
				C164.7,114.3,162.7,115.8,159.8,115.8z M159.8,104.4c-0.5,0-0.8,0.2-0.8,0.6v7.2c0,0.4,0.4,0.6,0.8,0.6c0.5,0,0.8-0.2,0.8-0.6
				V105C160.7,104.6,160.3,104.4,159.8,104.4z"/>
			<path class="st0" d="M170.4,112.2c0,0.4,0.4,0.6,0.8,0.6c0.5,0,0.8-0.2,0.8-0.6v-10.5h3.9v10.7c0,1.9-1.9,3.4-4.7,3.4
				c-2.8,0-4.9-1.5-4.9-3.4v-10.7h4.1V112.2z"/>
			<path class="st0" d="M183.3,101.7c1.9,0,3.7,1.1,3.7,2.9v2.5c0,0.7-0.5,1.4-1.5,1.8c1,0.4,1.6,1.1,1.6,1.8v2.6
				c0,0.9,0.3,1.6,0.5,2.3h-3.7c-0.3-0.6-0.5-1.4-0.5-2.1v-2.4c0-0.3-0.3-0.7-0.8-0.7h-0.9v5.3h-4v-13.8H183.3z M182.6,107.6
				c0.4,0,0.7-0.2,0.7-0.5v-2c0-0.4-0.2-0.5-0.7-0.5h-1v3.1H182.6z"/>
			<path class="st0" d="M193.7,112.8c0.5,0,0.9-0.2,0.9-0.6v-1.9h4v2.3c0,1.4-1.9,3.2-4.9,3.2c-3,0-5-1.8-5-3.2v-8
				c0-1.4,2-3.2,5-3.2c3,0,4.9,1.8,4.9,3.2v2.3h-4V105c0-0.4-0.4-0.6-0.9-0.6c-0.5,0-0.9,0.2-0.9,0.6v7.2
				C192.8,112.6,193.2,112.8,193.7,112.8z"/>
			<path class="st0" d="M208,104.4h-3.8v2.7h2.5v2.6h-2.5v2.9h3.8v2.9h-7.8v-13.8h7.8V104.4z"/>
			<path class="st0" d="M218.6,112.8c0.5,0,0.9-0.2,0.9-0.6v-1.9h4v2.3c0,1.4-1.9,3.2-4.9,3.2c-3,0-5-1.8-5-3.2v-8
				c0-1.4,2-3.2,5-3.2c3,0,4.9,1.8,4.9,3.2v2.3h-4V105c0-0.4-0.4-0.6-0.9-0.6c-0.5,0-0.9,0.2-0.9,0.6v7.2
				C217.7,112.6,218.1,112.8,218.6,112.8z"/>
			<path class="st0" d="M233,104.4h-3.8v2.7h2.5v2.6h-2.5v2.9h3.8v2.9h-7.8v-13.8h7.8V104.4z"/>
			<path class="st0" d="M241.2,101.7h3.5v13.8h-3.3l-3.3-6.5v6.5h-3.5v-13.8h3.4l3.2,6.6V101.7z"/>
			<path class="st0" d="M246.1,104.5v-2.8h9.5v2.8h-2.7v11h-4v-11H246.1z"/>
			<path class="st0" d="M264.8,104.4h-3.8v2.7h2.5v2.6h-2.5v2.9h3.8v2.9H257v-13.8h7.8V104.4z"/>
			<path class="st0" d="M272,101.7c1.9,0,3.7,1.1,3.7,2.9v2.5c0,0.7-0.5,1.4-1.5,1.8c1,0.4,1.6,1.1,1.6,1.8v2.6
				c0,0.9,0.3,1.6,0.5,2.3h-3.7c-0.3-0.6-0.5-1.4-0.5-2.1v-2.4c0-0.3-0.3-0.7-0.8-0.7h-0.9v5.3h-4v-13.8H272z M271.3,107.6
				c0.4,0,0.7-0.2,0.7-0.5v-2c0-0.4-0.2-0.5-0.7-0.5h-1v3.1H271.3z"/>
		</g>
	</g>
</g>
</svg>
